<?xml version="1.0" encoding="UTF-8" standalone="no"?>
<!-- Generator: Adobe Illustrator 19.1.0, SVG Export Plug-In . SVG Version: 6.00 Build 0)  -->

<svg
   xmlns:dc="http://purl.org/dc/elements/1.1/"
   xmlns:cc="http://creativecommons.org/ns#"
   xmlns:rdf="http://www.w3.org/1999/02/22-rdf-syntax-ns#"
   xmlns="http://www.w3.org/2000/svg"
   xmlns:sodipodi="http://sodipodi.sourceforge.net/DTD/sodipodi-0.dtd"
   xmlns:inkscape="http://www.inkscape.org/namespaces/inkscape"
   version="1.1"
   x="0px"
   y="0px"
   width="24px"
   height="24px"
   viewBox="0 0 24 24"
   enable-background="new 0 0 24 24"
   xml:space="preserve"
   id="svg10"
   sodipodi:docname="ic_action_track.svg"
   inkscape:version="0.92.3 (2405546, 2018-03-11)"><metadata
   id="metadata16"><rdf:RDF><cc:Work
       rdf:about=""><dc:format>image/svg+xml</dc:format><dc:type
         rdf:resource="http://purl.org/dc/dcmitype/StillImage" /></cc:Work></rdf:RDF></metadata><defs
   id="defs14" /><sodipodi:namedview
   pagecolor="#ffffff"
   bordercolor="#666666"
   borderopacity="1"
   objecttolerance="10"
   gridtolerance="10"
   guidetolerance="10"
   inkscape:pageopacity="0"
   inkscape:pageshadow="2"
   inkscape:window-width="1366"
   inkscape:window-height="741"
   id="namedview12"
   showgrid="false"
   inkscape:zoom="9.8333333"
   inkscape:cx="-5.7966102"
   inkscape:cy="12"
   inkscape:window-x="0"
   inkscape:window-y="27"
   inkscape:window-maximized="1"
   inkscape:current-layer="svg10" />
<g
   id="Bounding_Boxes">
	<g
   id="ui_x5F_spec_x5F_header_copy_3">
	</g>
	<path
   fill="none"
   d="M0,0h24v24H0V0z"
   id="path3" />
</g>
<g
   id="Outline_1_"
   transform="matrix(-0.8660254,0.5,0.5,0.8660254,15.33294,-3.3969934)"
   style="fill:#ffffff">
	<g
   id="ui_x5F_spec_x5F_header_copy_4"
   style="fill:#ffffff">
	</g>
	<path
   d="m 10,4 c 4.41,0 8,3.59 8,8 0,4.41 -3.59,8 -8,8 C 9.66,20 9.32,19.98 8.99,19.93 10.9,17.77 12,14.95 12,12 12,9.05 10.9,6.23 8.99,4.07 9.32,4.02 9.66,4 10,4 M 10,2 C 8.18,2 6.47,2.5 5,3.35 7.99,5.08 10,8.3 10,12 10,15.7 7.99,18.92 5,20.65 6.47,21.5 8.18,22 10,22 15.52,22 20,17.52 20,12 20,6.48 15.52,2 10,2 Z"
   id="path7"
   inkscape:connector-curvature="0"
   style="fill:#ffffff" />
</g>
</svg>