<?xml version="1.0" encoding="UTF-8" standalone="no"?>
<!-- Generator: Adobe Illustrator 19.1.0, SVG Export Plug-In . SVG Version: 6.00 Build 0)  -->

<svg
   xmlns:dc="http://purl.org/dc/elements/1.1/"
   xmlns:cc="http://creativecommons.org/ns#"
   xmlns:rdf="http://www.w3.org/1999/02/22-rdf-syntax-ns#"
   xmlns="http://www.w3.org/2000/svg"
   xmlns:sodipodi="http://sodipodi.sourceforge.net/DTD/sodipodi-0.dtd"
   xmlns:inkscape="http://www.inkscape.org/namespaces/inkscape"
   version="1.1"
   x="0px"
   y="0px"
   width="24px"
   height="24px"
   viewBox="0 0 24 24"
   enable-background="new 0 0 24 24"
   xml:space="preserve"
   id="svg13"
   sodipodi:docname="ic_action_bedtime.svg"
   inkscape:version="0.92.3 (2405546, 2018-03-11)"><metadata
   id="metadata19"><rdf:RDF><cc:Work
       rdf:about=""><dc:format>image/svg+xml</dc:format><dc:type
         rdf:resource="http://purl.org/dc/dcmitype/StillImage" /><dc:title></dc:title></cc:Work></rdf:RDF></metadata><defs
   id="defs17" /><sodipodi:namedview
   pagecolor="#b8b8b8"
   bordercolor="#666666"
   borderopacity="1"
   objecttolerance="10"
   gridtolerance="10"
   guidetolerance="10"
   inkscape:pageopacity="0"
   inkscape:pageshadow="2"
   inkscape:window-width="780"
   inkscape:window-height="480"
   id="namedview15"
   showgrid="false"
   inkscape:zoom="9.8333333"
   inkscape:cx="12"
   inkscape:cy="12"
   inkscape:window-x="0"
   inkscape:window-y="27"
   inkscape:window-maximized="0"
   inkscape:current-layer="svg13" />
<g
   id="Bounding_Boxes">
	<path
   fill="none"
   d="M0,0h24v24H0V0z"
   id="path2" />
</g>
<g
   id="Outline"
   style="fill:#ffffff">
	<g
   id="ui_x5F_spec_x5F_header"
   style="fill:#ffffff">
	</g>
	<g
   id="g10"
   style="fill:#ffffff">
		<path
   d="M7,14c1.66,0,3-1.34,3-3c0-1.66-1.34-3-3-3c-1.66,0-3,1.34-3,3C4,12.66,5.34,14,7,14z M7,10c0.55,0,1,0.45,1,1    s-0.45,1-1,1s-1-0.45-1-1S6.45,10,7,10z"
   id="path6"
   style="fill:#ffffff" />
		<path
   d="M19,7h-8v8H3V5H1v15h2v-3h18v3h2v-9C23,8.79,21.21,7,19,7z M21,15h-8V9h6c1.1,0,2,0.9,2,2V15z"
   id="path8"
   style="fill:#ffffff" />
	</g>
</g>
</svg>