<?xml version="1.0" encoding="UTF-8" standalone="no"?>
<svg
  xmlns:dc="http://purl.org/dc/elements/1.1/"
  xmlns:cc="http://creativecommons.org/ns#"
  xmlns:rdf="http://www.w3.org/1999/02/22-rdf-syntax-ns#"
  xmlns="http://www.w3.org/2000/svg"
  xmlns:sodipodi="http://sodipodi.sourceforge.net/DTD/sodipodi-0.dtd"
  xmlns:inkscape="http://www.inkscape.org/namespaces/inkscape"
  width="24"
  height="24"
  viewBox="0 0 24 24"
  version="1.1"
  id="svg6"
  sodipodi:docname="ic_action_watch.svg"
  inkscape:version="0.92.3 (2405546, 2018-03-11)">
  <metadata
     id="metadata12">
    <rdf:RDF>
      <cc:Work
         rdf:about="">
        <dc:format>image/svg+xml</dc:format>
        <dc:type
           rdf:resource="http://purl.org/dc/dcmitype/StillImage" />
      </cc:Work>
    </rdf:RDF>
  </metadata>
  <defs
     id="defs10" />
  <sodipodi:namedview
     pagecolor="#ffffff"
     bordercolor="#666666"
     borderopacity="1"
     objecttolerance="10"
     gridtolerance="10"
     guidetolerance="10"
     inkscape:pageopacity="0"
     inkscape:pageshadow="2"
     inkscape:window-width="780"
     inkscape:window-height="480"
     id="namedview8"
     showgrid="false"
     inkscape:zoom="9.8333333"
     inkscape:cx="12"
     inkscape:cy="12"
     inkscape:window-x="0"
     inkscape:window-y="27"
     inkscape:window-maximized="0"
     inkscape:current-layer="svg6" />
  <path
     fill="none"
     d="M0 0h24v24H0V0z"
     id="path2" />
  <path
     d="M14.31 2l.41 2.48C13.87 4.17 12.96 4 12 4c-.95 0-1.87.17-2.71.47L9.7 2h4.61m.41 17.52L14.31 22H9.7l-.41-2.47c.84.3 1.76.47 2.71.47.96 0 1.87-.17 2.72-.48M16 0H8l-.95 5.73C5.19 7.19 4 9.45 4 12s1.19 4.81 3.05 6.27L8 24h8l.96-5.73C18.81 16.81 20 14.54 20 12s-1.19-4.81-3.04-6.27L16 0zm-4 18c-3.31 0-6-2.69-6-6s2.69-6 6-6 6 2.69 6 6-2.69 6-6 6z"
     id="path4"
     style="fill:#ffffff" />
</svg>
