<?xml version="1.0" encoding="UTF-8" standalone="no"?>
<svg
   xmlns:dc="http://purl.org/dc/elements/1.1/"
   xmlns:cc="http://creativecommons.org/ns#"
   xmlns:rdf="http://www.w3.org/1999/02/22-rdf-syntax-ns#"
   xmlns:svg="http://www.w3.org/2000/svg"
   xmlns="http://www.w3.org/2000/svg"
   xmlns:sodipodi="http://sodipodi.sourceforge.net/DTD/sodipodi-0.dtd"
   xmlns:inkscape="http://www.inkscape.org/namespaces/inkscape"
   inkscape:version="1.0 (4035a4fb49, 2020-05-01)"
   sodipodi:docname="alarm.svg"
   xml:space="preserve"
   style="enable-background:new 0 0 346.013 346.013;"
   viewBox="0 0 346.013 346.013"
   y="0px"
   x="0px"
   id="Capa_1"
   version="1.1"><metadata
   id="metadata51"><rdf:RDF><cc:Work
       rdf:about=""><dc:format>image/svg+xml</dc:format><dc:type
         rdf:resource="http://purl.org/dc/dcmitype/StillImage" /></cc:Work></rdf:RDF></metadata><defs
   id="defs49" /><sodipodi:namedview
   inkscape:current-layer="Capa_1"
   inkscape:window-maximized="1"
   inkscape:window-y="27"
   inkscape:window-x="0"
   inkscape:cy="173.0065"
   inkscape:cx="173.0065"
   inkscape:zoom="2.3409525"
   showgrid="false"
   id="namedview47"
   inkscape:window-height="956"
   inkscape:window-width="1920"
   inkscape:pageshadow="2"
   inkscape:pageopacity="0"
   guidetolerance="10"
   gridtolerance="10"
   objecttolerance="10"
   borderopacity="1"
   bordercolor="#666666"
   pagecolor="#ffffff" />
<g
   style="fill:#ffffff"
   id="g14">
	<path
   style="fill:#ffffff"
   id="path2"
   d="M261.752,242.918c-2.429-2.128-4.723-4.138-5.832-6.133c-0.088-0.161-0.184-0.324-0.32-0.549   c-4.244-6.792-5.837-23.742-6.788-33.866c-0.142-1.521-0.279-2.975-0.416-4.336c-0.014-0.138-0.03-0.274-0.058-0.482   c-2.181-15.25-7.596-37.241-21.01-55.398c-9.281-12.563-20.811-21.047-34.316-25.263c-1.391-9.796-9.832-17.353-20.006-17.353   c-10.174,0-18.617,7.559-20.006,17.355c-13.504,4.213-25.035,12.697-34.316,25.262c-13.414,18.154-18.83,40.146-21.01,55.396   l-0.016,0.122c-0.017,0.131-0.032,0.259-0.04,0.353c-0.138,1.369-0.275,2.82-0.417,4.34c-0.952,10.129-2.545,27.082-6.828,33.934   c-0.076,0.125-0.147,0.25-0.255,0.438c-1.134,2.041-3.428,4.053-5.855,6.182c-5.969,5.23-18.388,16.116-8.156,35.115   c1.979,3.677,5.804,5.961,9.98,5.961h173.839c4.173,0,7.996-2.283,9.979-5.96C280.135,259.04,267.721,248.153,261.752,242.918z" />
	<path
   style="fill:#ffffff"
   id="path4"
   d="M192.752,302.979h-40.214c-1.652,0-3.205,0.723-4.262,1.981c-1.982,2.362-1.427,5.51-1.096,7.39l0.026,0.151   c2.188,12.541,13.028,21.644,25.776,21.644c12.984,0,24.125-9.685,25.912-22.511l0.039-0.21c0.221-1.165,0.737-3.892-1.189-6.219   C197.055,304.374,195.491,302.979,192.752,302.979z" />
	<path
   style="fill:#ffffff"
   id="path6"
   d="M101.631,24.448c-1.338-8.176-9.046-13.723-17.227-12.379C61.8,15.77,40.925,27.203,25.623,44.26   C10.266,61.382,1.415,82.568,0.028,105.529c-0.5,8.269,5.799,15.378,14.068,15.877c0.308,0.019,0.614,0.028,0.918,0.028   c7.871,0,14.478-6.135,14.958-14.097c0.975-16.132,7.193-31.017,17.982-43.045c10.907-12.159,25.187-19.98,41.296-22.618   C97.428,40.335,102.97,32.623,101.631,24.448z" />
	<path
   style="fill:#ffffff"
   id="path8"
   d="M83.133,128.277c0.519-8.591,3.831-16.518,9.576-22.924c5.809-6.475,13.414-10.64,21.993-12.045   c8.175-1.339,13.718-9.051,12.379-17.227c-1.338-8.175-9.045-13.723-17.227-12.379c-15.182,2.485-29.202,10.163-39.478,21.619   c-10.167,11.334-16.271,25.946-17.189,41.146c-0.5,8.269,5.799,15.378,14.068,15.877c0.308,0.019,0.613,0.028,0.918,0.028   C76.044,142.373,82.652,136.238,83.133,128.277z" />
	<path
   style="fill:#ffffff"
   id="path10"
   d="M345.985,105.529c-1.387-22.961-10.238-44.147-25.596-61.27c-15.301-17.057-36.176-28.489-58.78-32.19   c-8.172-1.346-15.889,4.203-17.227,12.379c-1.339,8.175,4.203,15.888,12.379,17.227c16.109,2.639,30.39,10.459,41.296,22.617   c10.79,12.029,17.008,26.914,17.982,43.046c0.48,7.962,7.087,14.097,14.959,14.097c0.304,0,0.61-0.01,0.918-0.028   C340.186,120.907,346.485,113.797,345.985,105.529z" />
	<path
   style="fill:#ffffff"
   id="path12"
   d="M275.636,85.321c-10.276-11.455-24.297-19.133-39.479-21.618c-8.179-1.344-15.888,4.203-17.227,12.379   s4.204,15.889,12.379,17.227c8.58,1.405,16.186,5.57,21.994,12.045c5.746,6.406,9.057,14.333,9.575,22.923   c0.48,7.962,7.087,14.097,14.959,14.097c0.304,0,0.609-0.009,0.917-0.027c8.27-0.499,14.568-7.606,14.069-15.876   C291.908,111.27,285.803,96.657,275.636,85.321z" />
</g>
<g
   id="g16">
</g>
<g
   id="g18">
</g>
<g
   id="g20">
</g>
<g
   id="g22">
</g>
<g
   id="g24">
</g>
<g
   id="g26">
</g>
<g
   id="g28">
</g>
<g
   id="g30">
</g>
<g
   id="g32">
</g>
<g
   id="g34">
</g>
<g
   id="g36">
</g>
<g
   id="g38">
</g>
<g
   id="g40">
</g>
<g
   id="g42">
</g>
<g
   id="g44">
</g>
</svg>
